Coordinates
version=1
nRows=17
nColumns=24
inDegrees=yes

Units are S.I. units (second, meters, Newtons, ...)
Angles are in degrees.

endheader
time	pelvis_tilt	pelvis_list	pelvis_rotation	pelvis_tx	pelvis_ty	pelvis_tz	hip_flexion_r	hip_adduction_r	hip_rotation_r	knee_angle_r	ankle_angle_r	subtalar_angle_r	mtp_angle_r	hip_flexion_l	hip_adduction_l	hip_rotation_l	knee_angle_l	ankle_angle_l	subtalar_angle_l	mtp_angle_l	lumbar_extension	lumbar_bending	lumbar_rotation
      0.45800000	     -5.66556704	      5.26641962	     -2.96706069	     -0.81814656	      1.02671768	      0.30581331	     34.55844223	     -2.57824230	      0.56822091	     -7.76047212	      7.62995237	      0.03209114	      9.75857844	    -12.21080397	      6.61997778	     -0.59943354	     -3.79876277	     18.69134714	      7.41532398	      2.93396150	    -14.18952040	     -4.61916424	     -3.88294298
      0.46216667	     -5.65437156	      5.23055704	     -2.87697450	     -0.81206836	      1.02578950	      0.30597297	     34.61470816	     -2.51638819	      0.68957989	     -8.16404453	      7.51217108	     -0.21406547	      9.76200426	    -12.32637242	      6.54543709	     -0.61277167	     -4.35639755	     18.91810088	      7.66476496	      2.97701931	    -14.20142099	     -4.44494253	     -3.95034191
      0.46633333	     -5.61627951	      5.18484004	     -2.79096345	     -0.80596368	      1.02493915	      0.30614242	     34.64017392	     -2.44630220	      0.80716180	     -8.63145689	      7.36897224	     -0.48094642	      9.77542077	    -12.45687583	      6.45912828	     -0.66526893	     -4.93977737	     19.13790626	      7.96940699	      3.04861199	    -14.24891276	     -4.26432328	     -3.96899866
      0.47050000	     -5.60669398	      5.13604042	     -2.69552302	     -0.79980063	      1.02408602	      0.30631209	     34.68865891	     -2.37608637	      0.92049675	     -9.14912839	      7.18368654	     -0.77559709	      9.79552508	    -12.53952404	      6.36387470	     -0.70283452	     -5.57196264	     19.33829801	      8.25307226	      3.13830279	    -14.24944116	     -4.07315199	     -3.99923449
      0.47466667	     -5.57345609	      5.07216602	     -2.60060857	     -0.79358930	      1.02332193	      0.30649259	     34.69784149	     -2.29390813	      1.03447659	     -9.69802746	      6.95089733	     -1.10841565	      9.82639063	    -12.63354717	      6.25012896	     -0.77142959	     -6.23269133	     19.51595941	      8.56102195	      3.26517845	    -14.28246088	     -3.86274310	     -4.01598665
      0.47883333	     -5.53526802	      5.02024096	     -2.49038464	     -0.78734108	      1.02261762	      0.30663274	     34.71057422	     -2.24041752	      1.06757970	    -10.31723977	      6.73985878	     -1.32005449	      9.83530502	    -12.74378489	      6.15486510	     -0.67569468	     -6.87602535	     19.62101016	      8.62656856	      3.31596180	    -14.30606149	     -3.67428580	     -3.99122523
      0.48300000	     -5.53616359	      4.92964337	     -2.40654685	     -0.78101032	      1.02188806	      0.30689006	     34.72320758	     -2.11700656	      1.25798758	    -10.89777624	      6.34314314	     -1.85038128	      9.87945860	    -12.75661504	      5.99892943	     -0.89590352	     -7.63773336	     19.77212269	      9.12312857	      3.51232302	    -14.28360928	     -3.42126866	     -4.04271215
      0.48716667	     -5.48803968	      4.84074625	     -2.30410912	     -0.77468073	      1.02128445	      0.30708133	     34.70624851	     -2.02608631	      1.28403104	    -11.56611861	      6.02544089	     -2.11300524	     10.03416471	    -12.80131702	      5.84284986	     -1.07820115	     -8.44179285	     19.92381432	      9.59314578	      4.10048598	    -14.33505037	     -3.18250027	     -3.97892080
      0.49133333	     -5.49718978	      4.76041459	     -2.19788907	     -0.76827638	      1.02065902	      0.30730239	     34.72589578	     -1.93354982	      1.39719454	    -12.21590626	      5.56894964	     -2.58884866	     10.05902647	    -12.81331559	      5.70434742	     -1.05697691	     -9.19118783	     19.92648678	      9.70905550	      4.26170928	    -14.27762117	     -2.94144146	     -4.02480017
      0.49550000	     -5.47491144	      4.65672499	     -2.09350480	     -0.76183480	      1.02013704	      0.30753896	     34.70352863	     -1.82461795	      1.47056064	    -12.88062648	      5.10379761	     -3.01786569	     10.09429963	    -12.81152358	      5.52863952	     -1.18849324	    -10.03975682	     19.96858501	     10.04532604	      4.49729175	    -14.27039600	     -2.67516107	     -4.01121419
      0.49966667	     -5.43632543	      4.57286637	     -1.99247432	     -0.75542092	      1.01967455	      0.30780818	     34.67512403	     -1.73640161	      1.54059279	    -13.57950264	      4.63707352	     -3.39294340	     10.15236853	    -12.79471787	      5.36692934	     -1.36816313	    -10.94710585	     19.97530757	     10.44946734	      4.91595018	    -14.30133514	     -2.45532331	     -3.99094424
      0.50383333	     -5.39027503	      4.46023146	     -1.89883620	     -0.74893028	      1.01928020	      0.30807512	     34.64033792	     -1.62565000	      1.54063699	    -14.31119199	      4.14860321	     -3.74791577	     10.22975956	    -12.78520885	      5.17596114	     -1.54234183	    -11.85630261	     19.95317695	     10.82019103	      5.62003767	    -14.31715848	     -2.17813597	     -3.94641505
      0.50800000	     -5.42456408	      4.35665873	     -1.78291773	     -0.74238334	      1.01883912	      0.30833611	     34.66987702	     -1.52759313	      1.58609061	    -15.01909911	      3.66124221	     -4.13431019	     10.24008454	    -12.67042315	      4.99307660	     -1.61218983	    -12.81195940	     19.80268515	     10.95834865	      5.90471724	    -14.21252433	     -1.90020248	     -3.93620685
      0.51216667	     -5.40266321	      4.23339708	     -1.67524578	     -0.73584087	      1.01853962	      0.30861495	     34.64508274	     -1.41781652	      1.57410722	    -15.75086389	      3.16332352	     -4.47843069	     10.24162301	    -12.57650838	      4.77775788	     -1.80169557	    -13.83883634	     19.68168500	     11.29143796	      6.24299630	    -14.18936671	     -1.60696910	     -3.89496273
      0.51633333	     -5.33875091	      4.14169397	     -1.58036627	     -0.72935755	      1.01834294	      0.30896034	     34.59413090	     -1.33466254	      1.57661042	    -16.51690266	      2.69513567	     -4.77443829	     10.23345135	    -12.48879457	      4.58504744	     -2.05889457	    -14.92597554	     19.48675470	     11.74474945	      6.94272082	    -14.24798805	     -1.39027372	     -3.85354590
      0.52050000	     -5.33279086	      4.02229953	     -1.46937048	     -0.72277237	      1.01813080	      0.30924242	     34.59782466	     -1.24387529	      1.49514933	    -17.29626642	      2.30476192	     -4.94104460	     10.10946489	    -12.33002522	      4.36769393	     -2.22185383	    -16.02895666	     19.16936952	     11.91184461	     10.60006891	    -14.19420210	     -1.10200433	     -3.74612652
      0.52466667	     -5.30772379	      3.90758792	     -1.36550242	     -0.71621410	      1.01800819	      0.30958787	     34.57749220	     -1.14763504	      1.46552141	    -18.07011230	      1.88521956	     -5.25929641	     10.08319858	    -12.16133793	      4.14617979	     -2.41754747	    -17.18594217	     18.85230307	     12.17678602	     10.70050514	    -14.17380413	     -0.81969575	     -3.75695785
